<?xml version="1.0" encoding="UTF-8"?>
<!DOCTYPE svg PUBLIC "-//W3C//DTD SVG 1.1//EN" "http://www.w3.org/Graphics/SVG/1.1/DTD/svg11.dtd">
<svg xmlns="http://www.w3.org/2000/svg" version="1.1" viewBox='0 0 164 155'  style="shape-rendering:geometricPrecision; text-rendering:geometricPrecision; image-rendering:optimizeQuality; fill-rule:evenodd; clip-rule:evenodd" xmlns:xlink="http://www.w3.org/1999/xlink">
<g><path style="opacity:0.987" fill="#e94337" d="M 75.5,14.5 C 81.8708,14.4882 88.2041,14.9882 94.5,16C 100.517,18.0013 106.517,20.0013 112.5,22C 120.8,30.6388 129.3,38.8055 138,46.5C 139.504,50.0387 139.837,53.7054 139,57.5C 135.338,62.3053 134.505,67.6387 136.5,73.5C 136.333,75.8333 136.167,78.1667 136,80.5C 135.5,81 135,81.5 134.5,82C 140.116,86.8378 142.616,93.0045 142,100.5C 145.554,101.929 147.387,104.595 147.5,108.5C 150.292,108.452 152.125,109.785 153,112.5C 154.158,121.038 153.492,129.371 151,137.5C 144.625,137.991 138.458,139.491 132.5,142C 128.833,142.667 125.167,142.667 121.5,142C 115.974,139.158 110.14,137.324 104,136.5C 99.3521,137.048 94.8521,138.215 90.5,140C 85.1338,140.736 79.8004,140.569 74.5,139.5C 72.5885,140.851 70.4218,141.518 68,141.5C 62.2689,139.961 56.4355,138.794 50.5,138C 49.6112,134.624 47.4445,132.457 44,131.5C 36.4648,132.896 28.9648,134.563 21.5,136.5C 8.70564,132.875 4.3723,124.542 8.5,111.5C 13.1619,105.329 17.6619,98.9957 22,92.5C 23.5122,91.7433 24.8455,90.7433 26,89.5C 31.475,81.2468 32.975,72.2468 30.5,62.5C 30.5153,60.3659 31.0153,58.3659 32,56.5C 38.2302,47.857 44.0635,39.0237 49.5,30C 53.9413,27.2277 58.608,24.8944 63.5,23C 67.7424,20.3904 71.7424,17.5571 75.5,14.5 Z"/></g>
<g><path style="opacity:1" fill="#181515" d="M 103.5,62.5 C 103.836,67.0001 101.836,68.8334 97.5,68C 96.7476,67.3292 96.4142,66.4959 96.5,65.5C 98.5093,63.9348 100.843,62.9348 103.5,62.5 Z"/></g>
<g><path style="opacity:1" fill="#f7ebea" d="M 69.5,64.5 C 69.2933,67.1268 70.46,68.7935 73,69.5C 75.0736,68.9283 76.2402,67.595 76.5,65.5C 78.1172,66.038 79.7839,66.3713 81.5,66.5C 81.5479,69.2919 80.2146,71.1253 77.5,72C 69.635,74.2547 65.635,71.4214 65.5,63.5C 66.9587,63.4326 68.2921,63.7659 69.5,64.5 Z"/></g>
<g><path style="opacity:1" fill="#181414" d="M 69.5,64.5 C 71.9029,64.448 74.2362,64.7814 76.5,65.5C 76.2402,67.595 75.0736,68.9283 73,69.5C 70.46,68.7935 69.2933,67.1268 69.5,64.5 Z"/></g>
<g><path style="opacity:1" fill="#fae8e7" d="M 96.5,65.5 C 96.4142,66.4959 96.7476,67.3292 97.5,68C 101.836,68.8334 103.836,67.0001 103.5,62.5C 105.042,61.6993 106.708,61.366 108.5,61.5C 107.436,71.7763 102.603,74.443 94,69.5C 93.4638,67.3849 94.2971,66.0516 96.5,65.5 Z"/></g>
<g><path style="opacity:1" fill="#481512" d="M 109.5,87.5 C 111.337,87.6395 111.67,88.3061 110.5,89.5C 106.656,92.1719 102.489,94.1719 98,95.5C 94.7328,94.3978 91.5661,93.0645 88.5,91.5C 84.6837,92.9094 81.0171,94.576 77.5,96.5C 74.1667,95.1667 70.8333,93.8333 67.5,92.5C 63.3435,93.7749 59.3435,95.4415 55.5,97.5C 55.1667,97.1667 54.8333,96.8333 54.5,96.5C 58.3313,93.8346 62.498,91.8346 67,90.5C 70.5637,91.6999 74.0637,93.0332 77.5,94.5C 80.9598,92.3724 84.6264,90.7057 88.5,89.5C 91.5365,91.009 94.7032,92.3423 98,93.5C 102.103,91.8667 105.936,89.8667 109.5,87.5 Z"/></g>
</svg>
