<?xml version="1.0" encoding="UTF-8"?>
<!DOCTYPE svg PUBLIC "-//W3C//DTD SVG 1.1//EN" "http://www.w3.org/Graphics/SVG/1.1/DTD/svg11.dtd">
<svg xmlns="http://www.w3.org/2000/svg" version="1.1" viewBox='0 0 156 173'   style="shape-rendering:geometricPrecision; text-rendering:geometricPrecision; image-rendering:optimizeQuality; fill-rule:evenodd; clip-rule:evenodd" xmlns:xlink="http://www.w3.org/1999/xlink">
<g><path style="opacity:1" fill="#ff9f33" d="M 85.5,21.5 C 83.8612,21.0742 82.5279,21.0742 81.5,21.5C 77.3695,20.0994 73.0361,19.4327 68.5,19.5C 69.1342,18.0532 70.3009,17.3866 72,17.5C 75.843,18.1204 79.6764,18.7871 83.5,19.5C 84.7133,19.7472 85.38,20.4138 85.5,21.5 Z"/></g>
<g><path style="opacity:1" fill="#ff9f33" d="M 66.5,21.5 C 64.6086,24.1717 61.9419,25.1717 58.5,24.5C 58.5,23.5 58.5,22.5 58.5,21.5C 61.1667,21.5 63.8333,21.5 66.5,21.5 Z"/></g>
<g><path style="opacity:1" fill="#ff9f33" d="M 68.5,19.5 C 73.0361,19.4327 77.3695,20.0994 81.5,21.5C 82.649,26.2446 82.649,30.7446 81.5,35C 75.0833,37.3869 68.4166,38.7202 61.5,39C 61,39.5 60.5,40 60,40.5C 57.8366,39.332 55.8366,38.6654 54,38.5C 54.7037,35.9025 55.2037,33.4025 55.5,31C 54.2899,29.9609 53.2899,28.7942 52.5,27.5C 53.911,25.461 55.911,24.461 58.5,24.5C 61.9419,25.1717 64.6086,24.1717 66.5,21.5C 66.8333,20.5 67.5,19.8333 68.5,19.5 Z"/></g>
<g><path style="opacity:1" fill="#ff9f33" d="M 89.5,23.5 C 98.496,21.6102 105.496,24.2769 110.5,31.5C 111.895,33.3794 113.895,34.3794 116.5,34.5C 120.56,36.2807 124.56,37.9474 128.5,39.5C 129.428,43.458 128.094,46.1246 124.5,47.5C 125.246,48.7362 125.579,50.0695 125.5,51.5C 126.791,51.2627 127.791,51.596 128.5,52.5C 127.482,55.3768 127.649,58.3768 129,61.5C 131.562,66.1015 134.062,70.7682 136.5,75.5C 135.57,77.1047 135.57,78.6047 136.5,80C 135.833,81.3333 135.167,82.6667 134.5,84C 137.369,87.0262 140.869,89.1928 145,90.5C 146.379,94.4755 145.213,97.3088 141.5,99C 143.513,99.6797 144.846,101.013 145.5,103C 144.839,105.464 144.339,107.964 144,110.5C 142.67,111.582 141.17,112.249 139.5,112.5C 142.207,109.118 141.874,105.952 138.5,103C 139.167,102.667 139.833,102.333 140.5,102C 140.656,100.33 139.99,98.663 138.5,97C 139.459,93.6949 138.959,90.5282 137,87.5C 134.532,88.2008 132.365,87.5342 130.5,85.5C 129.572,82.8704 128.572,80.2037 127.5,77.5C 128.228,75.8453 128.395,74.1786 128,72.5C 126.414,71.624 124.914,70.624 123.5,69.5C 124.002,68.2836 124.335,67.1169 124.5,66C 123.638,63.2656 122.805,63.0989 122,65.5C 121.784,63.6161 121.117,61.9494 120,60.5C 119.667,61.1667 119.333,61.8333 119,62.5C 117.691,60.3136 117.524,58.1469 118.5,56C 115.167,52.6667 111.833,49.3333 108.5,46C 109.167,45.3333 109.833,44.6667 110.5,44C 110.038,42.2784 109.872,40.445 110,38.5C 108.252,38.1652 106.419,37.1652 104.5,35.5C 102.826,36.8801 101.16,38.2134 99.5,39.5C 97.6274,39.5177 97.2941,39.0177 98.5,38C 97.1509,37.2276 96.3176,36.0609 96,34.5C 94.4702,35.636 93.1369,36.636 92,37.5C 91.7508,36.376 91.2508,35.376 90.5,34.5C 89.2638,35.2458 87.9305,35.5792 86.5,35.5C 87.1223,33.665 88.4556,32.4983 90.5,32C 90.8936,30.0764 90.227,28.243 88.5,26.5C 88.685,25.4163 89.0183,24.4163 89.5,23.5 Z"/></g>
<g><path style="opacity:1" fill="#ff9f33" d="M 51.5,27.5 C 50.0892,29.914 48.0892,31.5806 45.5,32.5C 46.2429,29.4304 48.2429,27.7637 51.5,27.5 Z"/></g>
<g><path style="opacity:1" fill="#ff9f33" d="M 110.5,31.5 C 113.089,31.461 115.089,32.461 116.5,34.5C 113.895,34.3794 111.895,33.3794 110.5,31.5 Z"/></g>
<g><path style="opacity:1" fill="#ff9f33" d="M 39.5,35.5 C 39.5,35.8333 39.5,36.1667 39.5,36.5C 39.3915,38.5138 40.0582,40.1805 41.5,41.5C 40.0462,42.5203 39.7129,43.687 40.5,45C 38.8115,47.2526 36.8115,49.0859 34.5,50.5C 33.5876,48.8227 32.9209,46.9893 32.5,45C 33.3901,42.2162 33.5567,39.3829 33,36.5C 35.0408,35.5769 37.2075,35.2436 39.5,35.5 Z"/></g>
<g><path style="opacity:1" fill="#ff9f33" d="M 39.5,36.5 C 41.1958,36.6854 42.5291,37.5187 43.5,39C 42.1939,42.6588 43.1939,46.1588 46.5,49.5C 47.086,49.2907 47.586,48.9574 48,48.5C 48.0657,51.2756 49.2324,53.4423 51.5,55C 49.311,55.677 48.9776,56.8437 50.5,58.5C 49.8333,59.1667 49.1667,59.8333 48.5,60.5C 50.0398,60.6938 51.7065,61.5272 53.5,63C 51.8078,64.4007 51.1412,66.2341 51.5,68.5C 54.4317,68.7157 57.0983,68.049 59.5,66.5C 65.4561,68.2874 65.4561,70.7874 59.5,74C 62.1019,74.935 63.6019,76.7683 64,79.5C 65.3204,79.201 66.8204,79.0343 68.5,79C 64.9162,77.7051 64.7495,76.2051 68,74.5C 69.9652,77.1935 70.7986,80.0268 70.5,83C 70,83.5 69.5,84 69,84.5C 68.6667,83.1667 68.3333,81.8333 68,80.5C 67.3918,82.0664 66.5585,83.3998 65.5,84.5C 63.6136,85.0652 61.9469,86.0652 60.5,87.5C 61.0253,88.1924 61.6919,88.6924 62.5,89C 61.4238,90.7261 61.2571,92.5594 62,94.5C 63.1911,92.0852 65.1911,90.7519 68,90.5C 69.6532,90.8198 70.6532,91.8198 71,93.5C 71.3333,92.5 71.6667,91.5 72,90.5C 73.6667,91.8333 75.3333,91.8333 77,90.5C 78.3988,91.2266 79.8988,91.7266 81.5,92C 81.1667,92.3333 80.8333,92.6667 80.5,93C 81.7101,94.0391 82.7101,95.2058 83.5,96.5C 83.5,97.5 83.5,98.5 83.5,99.5C 84.5,99.5 85.5,99.5 86.5,99.5C 86.8432,101.483 86.1765,102.817 84.5,103.5C 79.7157,103.461 75.3824,104.794 71.5,107.5C 69.8767,106.524 68.5433,107.024 67.5,109C 68.8721,109.402 70.2054,109.902 71.5,110.5C 73.0983,109.515 74.765,109.349 76.5,110C 73.8987,110.92 71.2321,111.587 68.5,112C 68.8333,112.333 69.1667,112.667 69.5,113C 67.9544,114.44 67.121,116.273 67,118.5C 66.9747,116.102 66.1413,113.769 64.5,111.5C 62.1178,109.929 59.4512,109.096 56.5,109C 57.4506,108.282 57.6172,107.449 57,106.5C 55.6491,106.446 54.4824,106.946 53.5,108C 51.8592,109.646 52.1925,110.646 54.5,111C 52.1902,111.497 49.8568,111.663 47.5,111.5C 47.6107,110.883 47.944,110.383 48.5,110C 46.7174,108.933 46.2174,107.433 47,105.5C 47.4186,106.672 48.0853,107.672 49,108.5C 49.7065,106.919 50.5399,105.419 51.5,104C 50.552,103.517 49.552,103.351 48.5,103.5C 48.3433,102.127 48.51,100.793 49,99.5C 50.4056,100.668 51.5723,100.335 52.5,98.5C 52.8586,99.9172 54.0253,101.25 56,102.5C 59.5218,99.3963 59.0218,96.563 54.5,94C 54.4782,92.0359 54.8115,89.8693 55.5,87.5C 55.1667,86.5 54.8333,85.5 54.5,84.5C 53.549,85.3256 52.549,85.4922 51.5,85C 49.2911,83.1266 47.4578,80.96 46,78.5C 45.3333,81.1667 44.6667,81.1667 44,78.5C 42.8687,79.6039 42.0354,79.2705 41.5,77.5C 42.4908,75.8773 41.8241,74.8773 39.5,74.5C 38.4063,75.868 38.7397,77.0347 40.5,78C 39.1667,78.6667 37.8333,78.6667 36.5,78C 37.8882,77.1107 37.7215,76.6107 36,76.5C 34.51,77.3169 33.01,78.1502 31.5,79C 31.5,80.6667 31.5,82.3333 31.5,84C 30.2513,85.8241 29.0847,85.6574 28,83.5C 25.2656,84.3617 25.0989,85.195 27.5,86C 26.0327,89.6811 23.366,92.8478 19.5,95.5C 19.4749,89.7212 21.4749,84.8879 25.5,81C 24.6598,79.3335 25.1598,79.1669 27,80.5C 27.935,77.8981 29.7683,76.3981 32.5,76C 31.9781,75.4387 31.6448,74.772 31.5,74C 33.3932,71.0459 34.8932,67.8792 36,64.5C 37.425,63.7877 38.925,63.621 40.5,64C 39.8333,63 39.1667,62 38.5,61C 41.3041,59.3619 43.9708,57.5285 46.5,55.5C 43.9515,54.7158 41.6181,53.5492 39.5,52C 40.624,51.7508 41.624,51.2508 42.5,50.5C 41.5934,47.5788 41.2601,44.5788 41.5,41.5C 40.0582,40.1805 39.3915,38.5138 39.5,36.5 Z"/></g>
<g><path style="opacity:1" fill="#ff9f33" d="M 85.5,21.5 C 86.5137,22.6737 87.847,23.3404 89.5,23.5C 89.0183,24.4163 88.685,25.4163 88.5,26.5C 90.227,28.243 90.8936,30.0764 90.5,32C 88.4556,32.4983 87.1223,33.665 86.5,35.5C 83.4149,38.0626 80.7482,41.0626 78.5,44.5C 76.7801,45.934 74.7801,46.7674 72.5,47C 71.842,48.9045 70.6753,50.4045 69,51.5C 68.4202,54.5475 68.7535,54.8808 70,52.5C 72.3995,55.9591 74.8995,58.6258 77.5,60.5C 74.5994,62.3354 73.9328,64.6687 75.5,67.5C 78.3646,67.0548 80.8646,67.7215 83,69.5C 83.3333,68.8333 83.6667,68.1667 84,67.5C 86.8542,71.5237 89.3542,71.1904 91.5,66.5C 93.3817,67.0933 95.2151,67.7599 97,68.5C 97.3333,67.8333 97.6667,67.1667 98,66.5C 100.333,67.1667 102.667,67.8333 105,68.5C 105.414,68.0426 105.914,67.7093 106.5,67.5C 107.429,68.6888 107.762,70.0222 107.5,71.5C 109.429,71.2308 111.095,71.7308 112.5,73C 110.476,74.4579 110.309,76.2913 112,78.5C 113.726,76.7721 115.059,74.7721 116,72.5C 117.167,74 118.333,75.5 119.5,77C 118.177,77.8159 117.511,78.9826 117.5,80.5C 116.957,80.56 116.624,80.8933 116.5,81.5C 118.945,83.3636 119.112,85.3636 117,87.5C 115.159,85.7889 113.326,84.1222 111.5,82.5C 107.146,83.9918 104.146,86.8251 102.5,91C 100.533,90.76 98.7002,89.9266 97,88.5C 96.5,88.6667 96,88.8333 95.5,89C 98.1522,91.4059 97.6522,93.2392 94,94.5C 92.6796,94.201 91.1796,94.0343 89.5,94C 89.8333,93.6667 90.1667,93.3333 90.5,93C 88.2557,90.6514 87.0891,91.1514 87,94.5C 85.8873,95.305 84.7206,95.9717 83.5,96.5C 82.7101,95.2058 81.7101,94.0391 80.5,93C 80.8333,92.6667 81.1667,92.3333 81.5,92C 79.8988,91.7266 78.3988,91.2266 77,90.5C 75.3333,91.8333 73.6667,91.8333 72,90.5C 71.6667,91.5 71.3333,92.5 71,93.5C 70.6532,91.8198 69.6532,90.8198 68,90.5C 65.1911,90.7519 63.1911,92.0852 62,94.5C 61.2571,92.5594 61.4238,90.7261 62.5,89C 61.6919,88.6924 61.0253,88.1924 60.5,87.5C 61.9469,86.0652 63.6136,85.0652 65.5,84.5C 66.5585,83.3998 67.3918,82.0664 68,80.5C 68.3333,81.8333 68.6667,83.1667 69,84.5C 69.5,84 70,83.5 70.5,83C 70.7986,80.0268 69.9652,77.1935 68,74.5C 64.7495,76.2051 64.9162,77.7051 68.5,79C 66.8204,79.0343 65.3204,79.201 64,79.5C 63.6019,76.7683 62.1019,74.935 59.5,74C 65.4561,70.7874 65.4561,68.2874 59.5,66.5C 57.0983,68.049 54.4317,68.7157 51.5,68.5C 51.1412,66.2341 51.8078,64.4007 53.5,63C 51.7065,61.5272 50.0398,60.6938 48.5,60.5C 49.1667,59.8333 49.8333,59.1667 50.5,58.5C 48.9776,56.8437 49.311,55.677 51.5,55C 49.2324,53.4423 48.0657,51.2756 48,48.5C 47.586,48.9574 47.086,49.2907 46.5,49.5C 43.1939,46.1588 42.1939,42.6588 43.5,39C 42.5291,37.5187 41.1958,36.6854 39.5,36.5C 39.5,36.1667 39.5,35.8333 39.5,35.5C 40.6421,33.0283 42.6421,32.0283 45.5,32.5C 48.0892,31.5806 50.0892,29.914 51.5,27.5C 51.8333,27.5 52.1667,27.5 52.5,27.5C 53.2899,28.7942 54.2899,29.9609 55.5,31C 55.2037,33.4025 54.7037,35.9025 54,38.5C 55.8366,38.6654 57.8366,39.332 60,40.5C 60.5,40 61,39.5 61.5,39C 68.4166,38.7202 75.0833,37.3869 81.5,35C 82.649,30.7446 82.649,26.2446 81.5,21.5C 82.5279,21.0742 83.8612,21.0742 85.5,21.5 Z"/></g>
<g><path style="opacity:1" fill="#ff9f33" d="M 130.5,85.5 C 128.005,85.9688 125.339,85.9688 122.5,85.5C 122.001,82.7361 120.335,81.0695 117.5,80.5C 117.511,78.9826 118.177,77.8159 119.5,77C 118.333,75.5 117.167,74 116,72.5C 115.059,74.7721 113.726,76.7721 112,78.5C 110.309,76.2913 110.476,74.4579 112.5,73C 111.095,71.7308 109.429,71.2308 107.5,71.5C 107.762,70.0222 107.429,68.6888 106.5,67.5C 105.914,67.7093 105.414,68.0426 105,68.5C 102.667,67.8333 100.333,67.1667 98,66.5C 97.6667,67.1667 97.3333,67.8333 97,68.5C 95.2151,67.7599 93.3817,67.0933 91.5,66.5C 89.3542,71.1904 86.8542,71.5237 84,67.5C 83.6667,68.1667 83.3333,68.8333 83,69.5C 80.8646,67.7215 78.3646,67.0548 75.5,67.5C 73.9328,64.6687 74.5994,62.3354 77.5,60.5C 74.8995,58.6258 72.3995,55.9591 70,52.5C 68.7535,54.8808 68.4202,54.5475 69,51.5C 70.6753,50.4045 71.842,48.9045 72.5,47C 74.7801,46.7674 76.7801,45.934 78.5,44.5C 80.7482,41.0626 83.4149,38.0626 86.5,35.5C 87.9305,35.5792 89.2638,35.2458 90.5,34.5C 91.2508,35.376 91.7508,36.376 92,37.5C 93.1369,36.636 94.4702,35.636 96,34.5C 96.3176,36.0609 97.1509,37.2276 98.5,38C 97.2941,39.0177 97.6274,39.5177 99.5,39.5C 101.16,38.2134 102.826,36.8801 104.5,35.5C 106.419,37.1652 108.252,38.1652 110,38.5C 109.872,40.445 110.038,42.2784 110.5,44C 109.833,44.6667 109.167,45.3333 108.5,46C 111.833,49.3333 115.167,52.6667 118.5,56C 117.524,58.1469 117.691,60.3136 119,62.5C 119.333,61.8333 119.667,61.1667 120,60.5C 121.117,61.9494 121.784,63.6161 122,65.5C 122.805,63.0989 123.638,63.2656 124.5,66C 124.335,67.1169 124.002,68.2836 123.5,69.5C 124.914,70.624 126.414,71.624 128,72.5C 128.395,74.1786 128.228,75.8453 127.5,77.5C 128.572,80.2037 129.572,82.8704 130.5,85.5 Z"/></g>
<g><path style="opacity:1" fill="#ff9f33" d="M 30.5,55.5 C 31.0137,58.7762 30.5137,62.1095 29,65.5C 27.2342,67.596 25.9009,69.9293 25,72.5C 24.6667,72.1667 24.3333,71.8333 24,71.5C 23.1841,72.8228 22.0174,73.4894 20.5,73.5C 20.1667,73.5 19.8333,73.5 19.5,73.5C 18.7564,70.0504 20.0897,68.3838 23.5,68.5C 23.5,67.1667 23.5,65.8333 23.5,64.5C 27.2998,64.1806 27.4665,63.1806 24,61.5C 23.1215,56.4915 25.2882,54.4915 30.5,55.5 Z"/></g>
<g><path style="opacity:1" fill="#ff9f33" d="M 19.5,73.5 C 19.8333,73.5 20.1667,73.5 20.5,73.5C 20.2924,75.9201 20.6258,78.2534 21.5,80.5C 20.1502,81.9501 18.4835,82.6168 16.5,82.5C 18.2591,79.8152 19.2591,76.8152 19.5,73.5 Z"/></g>
<g><path style="opacity:1" fill="#281708" d="M 65.5,84.5 C 63.264,83.6109 61.264,82.2776 59.5,80.5C 58.573,82.9456 56.9063,83.7789 54.5,83C 52.4045,80.7095 51.7379,78.2095 52.5,75.5C 53.604,77.3885 54.9373,79.0552 56.5,80.5C 57.2752,78.5247 58.6086,77.6913 60.5,78C 62.7899,79.7772 64.4566,81.9438 65.5,84.5 Z"/></g>
<g><path style="opacity:1" fill="#2b1809" d="M 94.5,77.5 C 95.3764,77.3691 96.0431,77.7025 96.5,78.5C 95.3523,80.1487 94.019,81.6487 92.5,83C 90.6332,83.7112 89.1332,83.2112 88,81.5C 86.9805,82.6872 85.8139,83.6872 84.5,84.5C 84.1667,84 83.8333,83.5 83.5,83C 85.583,79.3467 88.083,78.8467 91,81.5C 92.3756,80.2949 93.5423,78.9616 94.5,77.5 Z"/></g>
<g><path style="opacity:1" fill="#ff9f33" d="M 117.5,80.5 C 120.335,81.0695 122.001,82.7361 122.5,85.5C 125.339,85.9688 128.005,85.9688 130.5,85.5C 132.365,87.5342 134.532,88.2008 137,87.5C 138.959,90.5282 139.459,93.6949 138.5,97C 139.99,98.663 140.656,100.33 140.5,102C 139.833,102.333 139.167,102.667 138.5,103C 141.874,105.952 142.207,109.118 139.5,112.5C 135.561,114.514 135.561,116.681 139.5,119C 136.165,122.14 133.165,125.64 130.5,129.5C 127.951,130.284 125.618,131.451 123.5,133C 124.833,134.84 124.666,135.34 123,134.5C 121.383,135.851 120.216,137.518 119.5,139.5C 116.79,141.48 113.957,141.814 111,140.5C 110.935,142.883 110.102,143.55 108.5,142.5C 106.552,144.539 104.385,144.539 102,142.5C 100.915,143.293 99.7481,143.96 98.5,144.5C 95.8488,144.28 93.5155,142.947 91.5,140.5C 92.7206,139.972 93.8873,139.305 95,138.5C 95.6259,140.991 96.4593,140.991 97.5,138.5C 98.8159,141.028 99.9826,141.028 101,138.5C 101.915,139.328 102.581,140.328 103,141.5C 104.097,139.947 105.43,138.614 107,137.5C 108.814,138.76 110.647,138.76 112.5,137.5C 114.924,135.421 117.424,132.755 120,129.5C 120.333,129.833 120.667,130.167 121,130.5C 121.309,129.234 121.809,128.067 122.5,127C 120.606,125.899 119.939,124.566 120.5,123C 119.128,122.598 117.795,122.098 116.5,121.5C 115.808,122.025 115.308,122.692 115,123.5C 113.414,122.624 111.914,121.624 110.5,120.5C 112.385,119.803 112.718,118.803 111.5,117.5C 115.297,117.169 115.463,115.502 112,112.5C 111.439,113.022 110.772,113.355 110,113.5C 106.666,112.944 103.5,112.111 100.5,111C 99.1669,109.16 99.3335,108.66 101,109.5C 101.5,109 102,108.5 102.5,108C 102.492,104.4 100.992,103.9 98,106.5C 97.6667,106.167 97.3333,105.833 97,105.5C 95.707,107.286 95.207,108.953 95.5,110.5C 95.2623,108.522 93.9289,106.855 91.5,105.5C 92.325,104.614 93.325,104.281 94.5,104.5C 94.8841,102.335 94.2174,100.668 92.5,99.5C 91.9395,101.377 90.7728,103.377 89,105.5C 87.3464,105.794 85.8464,105.127 84.5,103.5C 86.1765,102.817 86.8432,101.483 86.5,99.5C 85.5,99.5 84.5,99.5 83.5,99.5C 83.5,98.5 83.5,97.5 83.5,96.5C 84.7206,95.9717 85.8873,95.305 87,94.5C 87.0891,91.1514 88.2557,90.6514 90.5,93C 90.1667,93.3333 89.8333,93.6667 89.5,94C 91.1796,94.0343 92.6796,94.201 94,94.5C 97.6522,93.2392 98.1522,91.4059 95.5,89C 96,88.8333 96.5,88.6667 97,88.5C 98.7002,89.9266 100.533,90.76 102.5,91C 104.146,86.8251 107.146,83.9918 111.5,82.5C 113.326,84.1222 115.159,85.7889 117,87.5C 119.112,85.3636 118.945,83.3636 116.5,81.5C 116.624,80.8933 116.957,80.56 117.5,80.5 Z"/></g>
<g><path style="opacity:1" fill="#281708" d="M 66.5,98.5 C 68.0174,98.5106 69.1841,99.1772 70,100.5C 72.1596,97.9194 74.3263,97.9194 76.5,100.5C 77.548,99.6171 78.7147,98.9504 80,98.5C 81.7601,99.6301 83.5934,100.63 85.5,101.5C 83.5159,102.706 81.5159,102.706 79.5,101.5C 78.5,102.167 77.5,102.833 76.5,103.5C 75.452,102.617 74.2853,101.95 73,101.5C 70.3042,102.022 67.6376,102.355 65,102.5C 64.5,102.167 64,101.833 63.5,101.5C 64.3398,100.265 65.3398,99.265 66.5,98.5 Z"/></g>
<g><path style="opacity:1" fill="#ff9f33" d="M 47.5,111.5 C 47.3505,112.552 47.5172,113.552 48,114.5C 48.3333,114.167 48.6667,113.833 49,113.5C 49.4652,114.931 50.2986,116.097 51.5,117C 50.5494,117.718 50.3828,118.551 51,119.5C 52.1882,118.437 52.6882,117.103 52.5,115.5C 55.0115,115.162 57.3448,115.162 59.5,115.5C 57.6587,116.23 55.8254,116.897 54,117.5C 53.3162,118.784 53.4829,119.951 54.5,121C 53.5509,121.617 52.7175,121.451 52,120.5C 51.5348,121.931 50.7014,123.097 49.5,124C 46.9899,124.376 44.6565,125.21 42.5,126.5C 43.9056,127.427 45.4056,128.427 47,129.5C 47.5847,130.998 47.0847,131.998 45.5,132.5C 42.702,131.9 40.0354,130.9 37.5,129.5C 36.5224,129.977 35.6891,130.643 35,131.5C 34.3946,129.519 33.3946,129.185 32,130.5C 31.3486,128.765 31.5153,127.098 32.5,125.5C 31.2713,124.719 29.938,124.219 28.5,124C 28.5,123 28.5,122 28.5,121C 27.2575,120.689 26.2575,121.189 25.5,122.5C 24.4104,121.609 24.4104,120.609 25.5,119.5C 23.2735,116.863 20.9402,114.363 18.5,112C 19.4506,111.282 19.6172,110.449 19,109.5C 15.0028,110.579 14.8361,109.412 18.5,106C 17.0982,102.317 17.4316,98.8174 19.5,95.5C 23.366,92.8478 26.0327,89.6811 27.5,86C 25.0989,85.195 25.2656,84.3617 28,83.5C 29.0847,85.6574 30.2513,85.8241 31.5,84C 31.5,82.3333 31.5,80.6667 31.5,79C 33.01,78.1502 34.51,77.3169 36,76.5C 37.7215,76.6107 37.8882,77.1107 36.5,78C 37.8333,78.6667 39.1667,78.6667 40.5,78C 38.7397,77.0347 38.4063,75.868 39.5,74.5C 41.8241,74.8773 42.4908,75.8773 41.5,77.5C 42.0354,79.2705 42.8687,79.6039 44,78.5C 44.6667,81.1667 45.3333,81.1667 46,78.5C 47.4578,80.96 49.2911,83.1266 51.5,85C 52.549,85.4922 53.549,85.3256 54.5,84.5C 54.8333,85.5 55.1667,86.5 55.5,87.5C 54.8115,89.8693 54.4782,92.0359 54.5,94C 59.0218,96.563 59.5218,99.3963 56,102.5C 54.0253,101.25 52.8586,99.9172 52.5,98.5C 51.5723,100.335 50.4056,100.668 49,99.5C 48.51,100.793 48.3433,102.127 48.5,103.5C 49.552,103.351 50.552,103.517 51.5,104C 50.5399,105.419 49.7065,106.919 49,108.5C 48.0853,107.672 47.4186,106.672 47,105.5C 46.2174,107.433 46.7174,108.933 48.5,110C 47.944,110.383 47.6107,110.883 47.5,111.5 Z"/></g>
<g><path style="opacity:1" fill="#ff9f33" d="M 91.5,140.5 C 86.4602,139.893 80.7935,139.06 74.5,138C 72.9775,136.672 71.3108,136.838 69.5,138.5C 68.1861,137.687 67.0195,136.687 66,135.5C 65.6667,136.167 65.3333,136.833 65,137.5C 63.8869,136.289 62.7202,136.289 61.5,137.5C 60.2997,136.469 58.9663,135.635 57.5,135C 54.1103,134.754 50.777,134.254 47.5,133.5C 46.056,134.981 45.3894,134.648 45.5,132.5C 47.0847,131.998 47.5847,130.998 47,129.5C 45.4056,128.427 43.9056,127.427 42.5,126.5C 44.6565,125.21 46.9899,124.376 49.5,124C 50.7014,123.097 51.5348,121.931 52,120.5C 52.7175,121.451 53.5509,121.617 54.5,121C 53.4829,119.951 53.3162,118.784 54,117.5C 55.8254,116.897 57.6587,116.23 59.5,115.5C 57.3448,115.162 55.0115,115.162 52.5,115.5C 52.6882,117.103 52.1882,118.437 51,119.5C 50.3828,118.551 50.5494,117.718 51.5,117C 50.2986,116.097 49.4652,114.931 49,113.5C 48.6667,113.833 48.3333,114.167 48,114.5C 47.5172,113.552 47.3505,112.552 47.5,111.5C 49.8568,111.663 52.1902,111.497 54.5,111C 52.1925,110.646 51.8592,109.646 53.5,108C 54.4824,106.946 55.6491,106.446 57,106.5C 57.6172,107.449 57.4506,108.282 56.5,109C 59.4512,109.096 62.1178,109.929 64.5,111.5C 66.1413,113.769 66.9747,116.102 67,118.5C 67.121,116.273 67.9544,114.44 69.5,113C 69.1667,112.667 68.8333,112.333 68.5,112C 71.2321,111.587 73.8987,110.92 76.5,110C 74.765,109.349 73.0983,109.515 71.5,110.5C 70.2054,109.902 68.8721,109.402 67.5,109C 68.5433,107.024 69.8767,106.524 71.5,107.5C 75.3824,104.794 79.7157,103.461 84.5,103.5C 85.8464,105.127 87.3464,105.794 89,105.5C 90.7728,103.377 91.9395,101.377 92.5,99.5C 94.2174,100.668 94.8841,102.335 94.5,104.5C 93.325,104.281 92.325,104.614 91.5,105.5C 93.9289,106.855 95.2623,108.522 95.5,110.5C 95.207,108.953 95.707,107.286 97,105.5C 97.3333,105.833 97.6667,106.167 98,106.5C 100.992,103.9 102.492,104.4 102.5,108C 102,108.5 101.5,109 101,109.5C 99.3335,108.66 99.1669,109.16 100.5,111C 103.5,112.111 106.666,112.944 110,113.5C 110.772,113.355 111.439,113.022 112,112.5C 115.463,115.502 115.297,117.169 111.5,117.5C 112.718,118.803 112.385,119.803 110.5,120.5C 111.914,121.624 113.414,122.624 115,123.5C 115.308,122.692 115.808,122.025 116.5,121.5C 117.795,122.098 119.128,122.598 120.5,123C 119.939,124.566 120.606,125.899 122.5,127C 121.809,128.067 121.309,129.234 121,130.5C 120.667,130.167 120.333,129.833 120,129.5C 117.424,132.755 114.924,135.421 112.5,137.5C 110.647,138.76 108.814,138.76 107,137.5C 105.43,138.614 104.097,139.947 103,141.5C 102.581,140.328 101.915,139.328 101,138.5C 99.9826,141.028 98.8159,141.028 97.5,138.5C 96.4593,140.991 95.6259,140.991 95,138.5C 93.8873,139.305 92.7206,139.972 91.5,140.5 Z"/></g>
<g><path style="opacity:1" fill="#ff9f33" d="M 128.5,52.5 C 129.404,53.209 129.737,54.209 129.5,55.5C 133.068,55.7593 134.401,57.7593 133.5,61.5C 134.822,61.33 135.989,61.6634 137,62.5C 139.401,70.7207 141.235,79.054 142.5,87.5C 149.084,87.004 150.751,89.504 147.5,95C 147.689,98.8194 148.022,102.653 148.5,106.5C 150.948,106.085 152.281,107.085 152.5,109.5C 150.027,112.428 148.027,115.761 146.5,119.5C 146.181,122.645 145.181,125.478 143.5,128C 144.554,129.388 144.72,130.888 144,132.5C 142.283,133.988 141.116,135.821 140.5,138C 138.527,138.495 136.527,138.662 134.5,138.5C 135.474,136.915 136.974,135.915 139,135.5C 141.228,131.846 140.395,129.012 136.5,127C 138.622,124.579 140.622,122.079 142.5,119.5C 141.233,117.297 140.233,114.963 139.5,112.5C 141.17,112.249 142.67,111.582 144,110.5C 144.339,107.964 144.839,105.464 145.5,103C 144.846,101.013 143.513,99.6797 141.5,99C 145.213,97.3088 146.379,94.4755 145,90.5C 140.869,89.1928 137.369,87.0262 134.5,84C 135.167,82.6667 135.833,81.3333 136.5,80C 135.57,78.6047 135.57,77.1047 136.5,75.5C 134.062,70.7682 131.562,66.1015 129,61.5C 127.649,58.3768 127.482,55.3768 128.5,52.5 Z"/></g>
<g><path style="opacity:1" fill="#ff9f33" d="M 41.5,41.5 C 41.2601,44.5788 41.5934,47.5788 42.5,50.5C 41.624,51.2508 40.624,51.7508 39.5,52C 41.6181,53.5492 43.9515,54.7158 46.5,55.5C 43.9708,57.5285 41.3041,59.3619 38.5,61C 39.1667,62 39.8333,63 40.5,64C 38.925,63.621 37.425,63.7877 36,64.5C 34.8932,67.8792 33.3932,71.0459 31.5,74C 31.6448,74.772 31.9781,75.4387 32.5,76C 29.7683,76.3981 27.935,77.8981 27,80.5C 25.1598,79.1669 24.6598,79.3335 25.5,81C 21.4749,84.8879 19.4749,89.7212 19.5,95.5C 17.4316,98.8174 17.0982,102.317 18.5,106C 14.8361,109.412 15.0028,110.579 19,109.5C 19.6172,110.449 19.4506,111.282 18.5,112C 20.9402,114.363 23.2735,116.863 25.5,119.5C 24.4104,120.609 24.4104,121.609 25.5,122.5C 26.2575,121.189 27.2575,120.689 28.5,121C 28.5,122 28.5,123 28.5,124C 29.938,124.219 31.2713,124.719 32.5,125.5C 31.5153,127.098 31.3486,128.765 32,130.5C 33.3946,129.185 34.3946,129.519 35,131.5C 35.6891,130.643 36.5224,129.977 37.5,129.5C 40.0354,130.9 42.702,131.9 45.5,132.5C 45.3894,134.648 46.056,134.981 47.5,133.5C 50.777,134.254 54.1103,134.754 57.5,135C 58.9663,135.635 60.2997,136.469 61.5,137.5C 62.7202,136.289 63.8869,136.289 65,137.5C 65.3333,136.833 65.6667,136.167 66,135.5C 67.0195,136.687 68.1861,137.687 69.5,138.5C 71.3108,136.838 72.9775,136.672 74.5,138C 80.7935,139.06 86.4602,139.893 91.5,140.5C 93.5155,142.947 95.8488,144.28 98.5,144.5C 99.7481,143.96 100.915,143.293 102,142.5C 104.385,144.539 106.552,144.539 108.5,142.5C 110.102,143.55 110.935,142.883 111,140.5C 113.957,141.814 116.79,141.48 119.5,139.5C 120.216,137.518 121.383,135.851 123,134.5C 124.666,135.34 124.833,134.84 123.5,133C 125.618,131.451 127.951,130.284 130.5,129.5C 133.165,125.64 136.165,122.14 139.5,119C 135.561,116.681 135.561,114.514 139.5,112.5C 140.233,114.963 141.233,117.297 142.5,119.5C 140.622,122.079 138.622,124.579 136.5,127C 140.395,129.012 141.228,131.846 139,135.5C 136.974,135.915 135.474,136.915 134.5,138.5C 132.39,139.453 131.223,141.119 131,143.5C 128.605,146.681 125.605,147.348 122,145.5C 109.788,148.681 97.4543,149.681 85,148.5C 84.3261,149.578 83.3261,150.245 82,150.5C 78.6092,149.703 75.2759,148.703 72,147.5C 69.9011,148.287 67.7345,148.62 65.5,148.5C 65.8039,147.85 66.1373,147.183 66.5,146.5C 65.2338,145.276 64.0672,143.943 63,142.5C 58.0623,143.275 53.0623,143.942 48,144.5C 45.6196,143.799 43.4529,142.633 41.5,141C 36.8625,139.316 32.1958,138.316 27.5,138C 24.8669,134.687 23.2002,135.187 22.5,139.5C 22.719,138.325 22.3857,137.325 21.5,136.5C 19.5914,137.348 17.5914,137.682 15.5,137.5C 15.5,136.167 15.5,134.833 15.5,133.5C 14.5,133.5 13.5,133.5 12.5,133.5C 9.67546,133.919 7.50879,132.919 6,130.5C 5.22284,127.571 5.38951,124.737 6.5,122C 4.55821,118.704 2.55821,115.37 0.5,112C 1.52016,109.132 3.18682,106.632 5.5,104.5C 6.31844,101.893 6.81844,99.2263 7,96.5C 9.00843,95.2364 10.1751,93.4031 10.5,91C 9.67771,88.5661 9.34438,86.0661 9.5,83.5C 11.9496,83.702 14.283,83.3686 16.5,82.5C 18.4835,82.6168 20.1502,81.9501 21.5,80.5C 20.6258,78.2534 20.2924,75.9201 20.5,73.5C 22.0174,73.4894 23.1841,72.8228 24,71.5C 24.3333,71.8333 24.6667,72.1667 25,72.5C 25.9009,69.9293 27.2342,67.596 29,65.5C 30.5137,62.1095 31.0137,58.7762 30.5,55.5C 31.803,53.8577 33.1363,52.1911 34.5,50.5C 36.8115,49.0859 38.8115,47.2526 40.5,45C 39.7129,43.687 40.0462,42.5203 41.5,41.5 Z"/></g>
<g><path style="opacity:1" fill="#ff9f33" d="M 12.5,133.5 C 13.5,133.5 14.5,133.5 15.5,133.5C 15.5,134.833 15.5,136.167 15.5,137.5C 17.5914,137.682 19.5914,137.348 21.5,136.5C 22.3857,137.325 22.719,138.325 22.5,139.5C 22.5,139.833 22.5,140.167 22.5,140.5C 17.2972,140.584 13.9639,138.251 12.5,133.5 Z"/></g>
<g><path style="opacity:1" fill="#ff9f33" d="M 65.5,148.5 C 61.1206,148.292 56.7873,148.625 52.5,149.5C 45.58,147.354 38.7467,144.688 32,141.5C 30.1765,141.887 28.3432,142.221 26.5,142.5C 24.6455,142.66 23.3121,141.993 22.5,140.5C 22.5,140.167 22.5,139.833 22.5,139.5C 23.2002,135.187 24.8669,134.687 27.5,138C 32.1958,138.316 36.8625,139.316 41.5,141C 43.4529,142.633 45.6196,143.799 48,144.5C 53.0623,143.942 58.0623,143.275 63,142.5C 64.0672,143.943 65.2338,145.276 66.5,146.5C 66.1373,147.183 65.8039,147.85 65.5,148.5 Z"/></g>
</svg>
