<?xml version="1.0" encoding="UTF-8"?>
<!DOCTYPE svg PUBLIC "-//W3C//DTD SVG 1.1//EN" "http://www.w3.org/Graphics/SVG/1.1/DTD/svg11.dtd">
<svg xmlns="http://www.w3.org/2000/svg" version="1.1" viewBox='0 0 164 155'  style="shape-rendering:geometricPrecision; text-rendering:geometricPrecision; image-rendering:optimizeQuality; fill-rule:evenodd; clip-rule:evenodd" xmlns:xlink="http://www.w3.org/1999/xlink">
<g><path style="opacity:0.984" fill="#fed661" d="M 76.5,15.5 C 96.0926,13.2591 113.759,17.9258 129.5,29.5C 133.946,36.0583 137.613,43.0583 140.5,50.5C 146.592,56.428 151.758,63.0947 156,70.5C 160.485,82.6607 159.151,93.9941 152,104.5C 146.879,107.953 142.046,111.786 137.5,116C 105.599,131.042 71.9328,137.375 36.5,135C 25.7184,131.895 17.5517,125.395 12,115.5C 10.5426,108.539 10.5426,101.539 12,94.5C 13.893,91.382 15.2264,88.0487 16,84.5C 25.6505,75.6111 31.3171,64.6111 33,51.5C 41.6983,32.2862 56.1983,20.2862 76.5,15.5 Z"/></g>
<g><path style="opacity:1" fill="#2b2413" d="M 103.5,58.5 C 104.497,58.4701 105.164,58.9701 105.5,60C 104.899,61.605 103.899,62.9384 102.5,64C 104.78,64.2326 106.78,65.066 108.5,66.5C 105.295,66.8225 101.962,66.8225 98.5,66.5C 100.086,63.8863 101.752,61.2197 103.5,58.5 Z"/></g>
<g><path style="opacity:1" fill="#332b16" d="M 66.5,61.5 C 68.1958,61.6854 69.5291,62.5187 70.5,64C 72.1341,64.4935 73.8008,64.6602 75.5,64.5C 74.0973,68.3199 71.264,70.6532 67,71.5C 65.7425,71.1501 65.4092,70.4835 66,69.5C 67.6095,68.8534 69.1095,68.02 70.5,67C 68.5359,65.549 67.2026,63.7157 66.5,61.5 Z"/></g>
<g><path style="opacity:1" fill="#272111" d="M 116.5,75.5 C 119.069,76.3956 121.069,78.0623 122.5,80.5C 117.46,89.7106 110.46,97.2106 101.5,103C 85.319,110.608 70.6523,108.441 57.5,96.5C 56.0316,98.3329 54.3649,98.6662 52.5,97.5C 55.4515,95.268 57.1182,92.268 57.5,88.5C 58.0292,91.2572 59.0292,93.7572 60.5,96C 80.142,110.145 97.9753,107.978 114,89.5C 115.636,86.3939 117.136,83.2272 118.5,80C 117.293,78.6998 116.626,77.1998 116.5,75.5 Z"/></g>
</svg>
