<?xml version="1.0" encoding="UTF-8"?>
<!DOCTYPE svg PUBLIC "-//W3C//DTD SVG 1.1//EN" "http://www.w3.org/Graphics/SVG/1.1/DTD/svg11.dtd">
<svg xmlns="http://www.w3.org/2000/svg" version="1.1" viewBox='0 0 139 118'   style="shape-rendering:geometricPrecision; text-rendering:geometricPrecision; image-rendering:optimizeQuality; fill-rule:evenodd; clip-rule:evenodd" xmlns:xlink="http://www.w3.org/1999/xlink">
<g><path style="opacity:0.986" fill="#fea7a3" d="M 60.5,8.5 C 73.8558,7.60455 86.5225,10.1045 98.5,16C 104.879,20.9093 109.712,27.076 113,34.5C 116.7,38.5352 120.7,42.2019 125,45.5C 137.174,63.8759 134.674,80.0426 117.5,94C 109.272,100.781 99.9388,105.447 89.5,108C 84.1667,108.667 78.8333,108.667 73.5,108C 56.4477,105.612 39.4477,102.945 22.5,100C 17.9524,99.0595 13.9524,97.0595 10.5,94C 7.89408,92.0616 6.06075,89.5616 5,86.5C 3.43248,78.5788 3.09915,70.5788 4,62.5C 6.1113,56.5891 9.44463,51.5891 14,47.5C 21.7207,25.2232 37.2207,12.2232 60.5,8.5 Z"/></g>
<g><path style="opacity:1" fill="#5f3b2b" d="M 49.5,49.5 C 51.587,50.7758 53.587,52.2758 55.5,54C 57.8098,54.4966 60.1432,54.6633 62.5,54.5C 62.5,55.5 62.5,56.5 62.5,57.5C 60.0706,57.8844 57.7373,58.551 55.5,59.5C 55.7381,55.9007 54.7381,55.5673 52.5,58.5C 51.0383,55.6529 50.0383,52.6529 49.5,49.5 Z"/></g>
<g><path style="opacity:1" fill="#553424" d="M 89.5,52.5 C 90.4972,52.4701 91.1639,52.9701 91.5,54C 90.3047,55.5325 90.3047,57.0325 91.5,58.5C 90.132,59.5937 88.9653,59.2603 88,57.5C 88.6586,63.3576 87.6586,63.691 85,58.5C 84.5065,60.1341 84.3398,61.8008 84.5,63.5C 83.5,63.5 82.5,63.5 81.5,63.5C 81.6703,60.5095 80.337,58.5095 77.5,57.5C 80.4465,56.6786 83.4465,56.1786 86.5,56C 88.4257,55.5776 89.4257,54.4109 89.5,52.5 Z"/></g>
<g><path style="opacity:1" fill="#523221" d="M 50.5,79.5 C 52.9324,80.7502 55.2657,82.2502 57.5,84C 65.1731,87.7951 72.5064,87.2951 79.5,82.5C 79.8333,82.8333 80.1667,83.1667 80.5,83.5C 75.06,88.2204 68.7267,89.7204 61.5,88C 56.2423,87.0575 52.5756,84.2242 50.5,79.5 Z"/></g>
</svg>
