<?xml version="1.0" encoding="UTF-8"?>
<!DOCTYPE svg PUBLIC "-//W3C//DTD SVG 1.1//EN" "http://www.w3.org/Graphics/SVG/1.1/DTD/svg11.dtd">
<svg xmlns="http://www.w3.org/2000/svg" version="1.1" viewBox='0 0 193 122'  style="shape-rendering:geometricPrecision; text-rendering:geometricPrecision; image-rendering:optimizeQuality; fill-rule:evenodd; clip-rule:evenodd" xmlns:xlink="http://www.w3.org/1999/xlink">
<g><path style="opacity:0.982" fill="#93b3b3" d="M 78.5,17.5 C 89.304,16.9326 99.9706,17.7659 110.5,20C 112.792,21.2899 114.792,22.9565 116.5,25C 128.016,24.3803 137.016,28.7137 143.5,38C 152.953,44.0596 162.953,49.0596 173.5,53C 178.503,56.9926 182.337,61.8259 185,67.5C 187.629,90.2027 177.796,104.036 155.5,109C 141.002,110.267 126.668,109.433 112.5,106.5C 95.1752,111.404 77.5085,114.07 59.5,114.5C 54.1198,114.464 48.7865,113.964 43.5,113C 32.9668,109.376 22.3001,106.376 11.5,104C 6.69109,99.9075 3.69109,94.9075 2.5,89C 2.52288,86.0746 3.02288,83.2413 4,80.5C 8.04281,72.461 13.5428,65.6276 20.5,60C 31.4645,54.1838 42.1311,47.8505 52.5,41C 56.0117,33.8208 60.6784,27.4874 66.5,22C 70.4324,19.9716 74.4324,18.4716 78.5,17.5 Z"/></g>
<g><path style="opacity:1" fill="#323d3d" d="M 85.5,57.5 C 86.5,57.5 87.5,57.5 88.5,57.5C 88.5,59.1667 88.5,60.8333 88.5,62.5C 87.5,62.5 86.5,62.5 85.5,62.5C 85.5,60.8333 85.5,59.1667 85.5,57.5 Z"/></g>
<g><path style="opacity:1" fill="#232a2a" d="M 95.5,56.5 C 96.5,56.5 97.5,56.5 98.5,56.5C 97.949,64.297 96.949,64.297 95.5,56.5 Z"/></g>
<g><path style="opacity:1" fill="#1b2121" d="M 92.5,81.5 C 98.5933,81.1392 104.593,81.6392 110.5,83C 114.846,84.6795 117.846,87.6795 119.5,92C 119.167,92.5 118.833,93 118.5,93.5C 112.64,85.2121 104.64,82.0454 94.5,84C 84.4932,87.0008 76.1599,92.5008 69.5,100.5C 68.675,101.386 67.675,101.719 66.5,101.5C 73.0864,92.2609 81.7531,85.5943 92.5,81.5 Z"/></g>
</svg>
