<?xml version="1.0" encoding="UTF-8"?>
<!DOCTYPE svg PUBLIC "-//W3C//DTD SVG 1.1//EN" "http://www.w3.org/Graphics/SVG/1.1/DTD/svg11.dtd">
<svg xmlns="http://www.w3.org/2000/svg" version="1.1" viewBox='0 0 143 146'   style="shape-rendering:geometricPrecision; text-rendering:geometricPrecision; image-rendering:optimizeQuality; fill-rule:evenodd; clip-rule:evenodd" xmlns:xlink="http://www.w3.org/1999/xlink">
<g><path style="opacity:0.985" fill="#ccb0cc" d="M 67.5,14.5 C 77.29,13.4537 86.6233,14.9537 95.5,19C 105.333,30.1667 115.167,41.3333 125,52.5C 134.561,65.378 137.228,79.7113 133,95.5C 128.005,103.309 122.171,110.475 115.5,117C 85.984,128.986 55.6507,131.653 24.5,125C 12.4834,118.811 7.15005,108.978 8.5,95.5C 7.49173,87.3511 9.32507,80.0178 14,73.5C 17.4549,61.4664 21.1215,49.4664 25,37.5C 25.972,35.6951 27.1387,34.0284 28.5,32.5C 40.201,23.4799 53.201,17.4799 67.5,14.5 Z"/></g>
<g><path style="opacity:1" fill="#191719" d="M 76.5,65.5 C 77.4959,65.4142 78.3292,65.7476 79,66.5C 79.4935,68.1341 79.6602,69.8008 79.5,71.5C 78.5,71.5 77.5,71.5 76.5,71.5C 76.5,69.5 76.5,67.5 76.5,65.5 Z"/></g>
<g><path style="opacity:1" fill="#0a080a" d="M 60.5,69.5 C 61.5,69.5 62.5,69.5 63.5,69.5C 63.8841,71.6648 63.2174,73.3315 61.5,74.5C 60.5481,72.9547 60.2148,71.288 60.5,69.5 Z"/></g>
<g><path style="opacity:1" fill="#211d21" d="M 92.5,82.5 C 94.9124,82.244 96.5791,83.244 97.5,85.5C 93.2416,89.2554 89.0749,93.2554 85,97.5C 84.9616,101.563 84.1283,105.397 82.5,109C 80.8333,109.667 79.1667,109.667 77.5,109C 76.1645,106.8 74.4978,104.967 72.5,103.5C 66.4779,104.123 60.4779,104.79 54.5,105.5C 53.5195,102.767 54.1862,100.433 56.5,98.5C 57.4287,99.6888 57.762,101.022 57.5,102.5C 70.5111,103.577 81.3444,99.2434 90,89.5C 91.9028,87.559 92.7361,85.2257 92.5,82.5 Z"/></g>
<g><path style="opacity:1" fill="#bda3bd" d="M 80.5,99.5 C 83.139,102.107 82.9723,104.774 80,107.5C 77.9451,106.328 77.2784,104.661 78,102.5C 78.414,102.957 78.914,103.291 79.5,103.5C 80.4287,102.311 80.762,100.978 80.5,99.5 Z"/></g>
</svg>
