<?xml version="1.0" encoding="UTF-8"?>
<!DOCTYPE svg PUBLIC "-//W3C//DTD SVG 1.1//EN" "http://www.w3.org/Graphics/SVG/1.1/DTD/svg11.dtd">
<svg xmlns="http://www.w3.org/2000/svg" version="1.1" viewBox='0 0 162 138'  style="shape-rendering:geometricPrecision; text-rendering:geometricPrecision; image-rendering:optimizeQuality; fill-rule:evenodd; clip-rule:evenodd" xmlns:xlink="http://www.w3.org/1999/xlink">
<g><path style="opacity:0.987" fill="#acc8e0" d="M 73.5,15.5 C 85.4448,17.3116 97.4448,18.8116 109.5,20C 112.564,22.2072 114.564,25.0406 115.5,28.5C 122.395,30.871 128.229,34.871 133,40.5C 134.135,44.6412 136.469,47.9746 140,50.5C 140.973,52.3921 141.64,54.3921 142,56.5C 145.333,60.5 148.667,64.5 152,68.5C 153.04,76.2639 154.207,83.9306 155.5,91.5C 154.359,108.47 145.359,115.636 128.5,113C 127.944,115.237 126.944,117.237 125.5,119C 119.457,118.835 113.791,120.168 108.5,123C 104.11,123.772 99.777,123.606 95.5,122.5C 92.0291,124.034 88.3625,124.7 84.5,124.5C 80.4711,124.68 76.6378,124.014 73,122.5C 70.0096,125.491 66.5096,127.657 62.5,129C 55.859,130.119 49.1923,130.453 42.5,130C 39.8333,128.667 37.8333,126.667 36.5,124C 31.5,123.667 26.5,123.333 21.5,123C 18.9664,122.484 16.7998,121.317 15,119.5C 12.2801,115.767 9.94678,111.767 8,107.5C 8.07285,99.5729 8.07285,91.5729 8,83.5C 9.52715,81.779 10.5272,79.779 11,77.5C 13.3333,75.5 15.6667,73.5 18,71.5C 19.1667,68.5 20.3333,65.5 21.5,62.5C 23.8302,60.3328 26.4968,58.6662 29.5,57.5C 30.4396,54.1975 31.273,50.8642 32,47.5C 39.7297,41.605 46.2297,34.605 51.5,26.5C 58.3182,21.6798 65.6515,18.0132 73.5,15.5 Z"/></g>
<g><path style="opacity:1" fill="#24292e" d="M 104.5,64.5 C 105.497,64.4701 106.164,64.9701 106.5,66C 104.21,71.6221 100.544,72.7888 95.5,69.5C 97.7662,68.6858 100.1,68.1858 102.5,68C 103.823,67.1841 104.489,66.0174 104.5,64.5 Z"/></g>
<g><path style="opacity:1" fill="#20252a" d="M 58.5,67.5 C 60.1958,67.6854 61.5291,68.5187 62.5,70C 64.8991,70.711 67.2324,70.5443 69.5,69.5C 70.3857,70.325 70.719,71.325 70.5,72.5C 67.4816,72.6646 64.4816,72.498 61.5,72C 59.8588,70.871 58.8588,69.371 58.5,67.5 Z"/></g>
<g><path style="opacity:1" fill="#416bc3" d="M 108.5,69.5 C 110.963,69.7811 113.13,70.7811 115,72.5C 115.803,75.2247 114.803,76.8914 112,77.5C 110.739,77.2409 109.739,76.5742 109,75.5C 108.505,73.5273 108.338,71.5273 108.5,69.5 Z"/></g>
<g><path style="opacity:1" fill="#1d2125" d="M 79.5,93.5 C 83.5138,93.3345 87.5138,93.5012 91.5,94C 92.3081,94.3076 92.9747,94.8076 93.5,95.5C 89.2871,95.5626 84.9538,95.7292 80.5,96C 77.0779,97.4252 74.2446,99.5919 72,102.5C 70.7425,102.15 70.4092,101.483 71,100.5C 73.4412,97.5464 76.2745,95.2131 79.5,93.5 Z"/></g>
</svg>
