<?xml version="1.0" encoding="UTF-8"?>
<!DOCTYPE svg PUBLIC "-//W3C//DTD SVG 1.1//EN" "http://www.w3.org/Graphics/SVG/1.1/DTD/svg11.dtd">
<svg xmlns="http://www.w3.org/2000/svg" version="1.1" viewBox='0 0 130 131'   style="shape-rendering:geometricPrecision; text-rendering:geometricPrecision; image-rendering:optimizeQuality; fill-rule:evenodd; clip-rule:evenodd" xmlns:xlink="http://www.w3.org/1999/xlink">
<g><path style="opacity:0.98" fill="#00cc80" d="M 50.5,14.5 C 66.2076,11.9551 80.5409,15.1218 93.5,24C 100.847,29.5913 107.68,35.7579 114,42.5C 123.42,57.2017 126.087,73.2017 122,90.5C 119.646,95.8581 116.146,100.358 111.5,104C 95.1208,114.43 77.1208,119.263 57.5,118.5C 41.3931,119.52 27.2264,114.853 15,104.5C 7.82669,95.7727 5.49336,85.7727 8,74.5C 10.7542,61.5687 15.0875,49.2354 21,37.5C 24.7538,31.7419 29.2538,26.5752 34.5,22C 39.666,18.7958 44.9993,16.2958 50.5,14.5 Z"/></g>
<g><path style="opacity:1" fill="#020f09" d="M 52.5,59.5 C 53.5,59.5 54.5,59.5 55.5,59.5C 55.5,61.5 55.5,63.5 55.5,65.5C 51.5564,65.1156 50.5564,63.1156 52.5,59.5 Z"/></g>
<g><path style="opacity:1" fill="#0b1e15" d="M 66.5,58.5 C 70.35,58.7007 71.35,60.5341 69.5,64C 68.552,64.4828 67.552,64.6495 66.5,64.5C 66.5,62.5 66.5,60.5 66.5,58.5 Z"/></g>
<g><path style="opacity:1" fill="#072116" d="M 57.5,82.5 C 60.5719,82.1826 63.5719,82.5159 66.5,83.5C 62.7314,92.6813 59.7314,92.348 57.5,82.5 Z"/></g>
</svg>
