<?xml version="1.0" encoding="UTF-8"?>
<!DOCTYPE svg PUBLIC "-//W3C//DTD SVG 1.1//EN" "http://www.w3.org/Graphics/SVG/1.1/DTD/svg11.dtd">
<svg xmlns="http://www.w3.org/2000/svg" version="1.1" viewBox='0 0 171 103'  style="shape-rendering:geometricPrecision; text-rendering:geometricPrecision; image-rendering:optimizeQuality; fill-rule:evenodd; clip-rule:evenodd" xmlns:xlink="http://www.w3.org/1999/xlink">
<g><path style="opacity:0.989" fill="#d7ccbc" d="M 66.5,9.5 C 73.7339,9.12544 80.7339,10.1254 87.5,12.5C 90.9908,16.1602 94.3242,19.9935 97.5,24C 107.809,28.6586 118.475,32.3253 129.5,35C 137.46,38.3119 144.794,42.6453 151.5,48C 157.647,53.1289 160.98,59.6289 161.5,67.5C 161.583,74.5988 158.25,79.4321 151.5,82C 145.043,85.4548 138.376,88.4548 131.5,91C 118.81,90.1931 106.143,90.6931 93.5,92.5C 91.1355,92.3637 88.8021,92.0303 86.5,91.5C 79.5334,92.4417 72.5334,93.1084 65.5,93.5C 53.0599,90.2465 40.3933,88.0798 27.5,87C 22.0474,82.9404 16.0474,79.9404 9.5,78C 8.27135,76.4708 6.77135,75.3041 5,74.5C 2.13394,59.7377 7.3006,48.9044 20.5,42C 26.7341,35.5221 32.7341,28.8554 38.5,22C 42.7392,20.0979 46.7392,17.7646 50.5,15C 56.1606,13.7618 61.494,11.9285 66.5,9.5 Z"/></g>
<g><path style="opacity:1" fill="#ac9e8f" d="M 76.5,36.5 C 79.3678,37.0168 82.0345,37.3501 84.5,37.5C 83.1924,39.6414 81.6924,41.6414 80,43.5C 77.9734,43.0137 75.8067,43.0137 73.5,43.5C 74.3158,41.1046 75.3158,38.7712 76.5,36.5 Z"/></g>
<g><path style="opacity:1" fill="#ac9e8f" d="M 63.5,41.5 C 73.5684,41.7741 73.9017,43.7741 64.5,47.5C 63.1667,47.1667 61.8333,46.8333 60.5,46.5C 61.7629,44.9713 62.7629,43.3046 63.5,41.5 Z"/></g>
<g><path style="opacity:1" fill="#403c38" d="M 83.5,53.5 C 84.2389,53.369 84.9056,53.5357 85.5,54C 84.5,55 83.5,56 82.5,57C 79.6922,57.598 77.1922,58.7647 75,60.5C 74.51,59.2068 74.3433,57.8734 74.5,56.5C 77.9924,56.554 80.9924,55.554 83.5,53.5 Z"/></g>
</svg>
